<?xml version="1.0" encoding="utf-8"?>
<!-- Generator: Adobe Illustrator 27.0.0, SVG Export Plug-In . SVG Version: 6.00 Build 0)  -->
<svg version="1.1" id="Layer_1" xmlns="http://www.w3.org/2000/svg" xmlns:xlink="http://www.w3.org/1999/xlink" x="0px" y="0px"
	 viewBox="0 0 512 512" style="enable-background:new 0 0 512 512;" xml:space="preserve">
<g>
	<g>
		<path d="M248,300.93c-0.83-4.17-1.45-8.45-1.58-12.69c-0.24-8.11-0.24-16.24,0-24.35c0.13-4.25,0.76-8.52,1.59-12.69
			c0.68-3.4,2.33-6.61,2.98-10.01c0.89-4.6-1.24-7.19-5.89-6.94c-4.03,0.22-8.19,0.77-11.99,2.06c-7.38,2.5-14.8,2.38-22.42,2.07
			c-12.21-0.49-24.46-0.83-36.66-0.34c-11.97,0.48-23.82,1.34-35.37-2.97c-2.24-0.84-4.89-0.88-7.33-0.83
			c-0.9,0.02-1.69,0.13-2.39,0.33c-2.59,0.75-3.7,2.8-3.12,6.13c0.58,3.41,2.11,6.65,2.8,10.06c0.13,0.66,0.27,1.31,0.39,1.97
			c0.68,3.47,1.36,9.19,1.46,12.72c0.2,7.42,0.18,14.86-0.08,22.27c-0.12,3.4-0.53,6.78-1.13,10.13c-0.24,1.32-0.48,2.63-0.73,3.94
			c-0.57,2.98-1.97,5.79-2.56,8.77c-0.77,3.92,0.17,6.24,2.98,7.03c0.89,0.25,1.97,0.35,3.25,0.28c3.6-0.17,7.3-0.72,10.7-1.86
			c7.78-2.61,15.63-2.59,23.71-2.26c12.79,0.53,25.62,0.75,38.4,0.24c10.82-0.43,21.49-1.1,31.9,2.8c2.27,0.85,4.85,0.91,6.19,1.15
			c6.74,0.13,9.01-2.42,7.77-7.87C250.17,306.97,248.62,304.05,248,300.93z"/>
		<path d="M383.11,300.93c-0.83-4.17-1.45-8.45-1.58-12.69c-0.24-8.11-0.24-16.24,0-24.35c0.13-4.25,0.75-8.52,1.59-12.69
			c0.68-3.4,2.33-6.61,2.98-10.01c0.89-4.6-1.24-7.19-5.89-6.94c-4.03,0.22-8.19,0.77-11.99,2.06c-7.38,2.5-14.8,2.38-22.42,2.07
			c-12.21-0.49-24.46-0.83-36.66-0.34c-11.97,0.48-23.82,1.34-35.37-2.97c-2.24-0.84-4.89-0.88-7.34-0.83
			c-0.9,0.02-1.69,0.13-2.39,0.33c-2.59,0.75-3.69,2.8-3.12,6.13c0.59,3.41,2.11,6.65,2.8,10.06c0.11,0.54,0.22,1.08,0.32,1.62
			c0.72,3.66,1.35,7.36,1.47,11.06c0.25,7.8,0.26,15.63,0.01,23.43c-0.12,3.85-0.58,7.68-1.25,11.47c-0.21,1.15-0.42,2.3-0.64,3.45
			c-0.57,2.98-1.98,5.79-2.56,8.77c-0.77,3.92,0.17,6.24,2.98,7.03c0.89,0.25,1.97,0.35,3.25,0.28c3.6-0.17,7.3-0.72,10.7-1.86
			c7.78-2.61,15.63-2.59,23.71-2.26c12.79,0.53,25.62,0.75,38.4,0.24c10.82-0.43,21.49-1.1,31.9,2.8c2.27,0.85,4.85,0.91,6.19,1.15
			c6.74,0.13,9.02-2.42,7.77-7.87C385.28,306.97,383.73,304.05,383.11,300.93z"/>
	</g>
	<path d="M256.98,72.64C128.59,72.12,22.46,176.42,20.87,304.81c-0.6,48.64,13.57,93.94,38.3,131.69c1.18,1.79,3.2,2.86,5.34,2.86
		h3.59h0c3.98,0,7.2-3.23,7.2-7.2v-8.75c0-3.98,2.04-7.47,5.12-9.51c1.8-1.2,3.96-1.9,6.29-1.9h338.57c2.33,0,4.48,0.7,6.29,1.9
		c3.08,2.04,5.12,5.54,5.12,9.51v8.75c0,3.98,3.23,7.2,7.2,7.2h0h3.59c2.14,0,4.16-1.07,5.34-2.86
		c24.23-36.98,38.32-81.2,38.32-128.71C491.15,178.25,386.4,73.17,256.98,72.64z M450.93,377.18v-28.16
		c0-6.3-5.11-11.41-11.41-11.41H72.48c-6.3,0-11.41,5.11-11.41,11.41v28.15v9.81c-11.45-28.16-17.04-59.33-15.09-92.04
		c6.41-106.93,93.81-192.81,200.83-197.37c120.38-5.12,219.58,90.96,219.58,210.2c0,28.02-5.52,54.75-15.47,79.2V377.18z"/>
</g>
</svg>
