<?xml version="1.0" encoding="utf-8"?>
<!-- Generator: Adobe Illustrator 27.0.0, SVG Export Plug-In . SVG Version: 6.00 Build 0)  -->
<svg version="1.1" id="Layer_1" xmlns="http://www.w3.org/2000/svg" xmlns:xlink="http://www.w3.org/1999/xlink" x="0px"
	y="0px" viewBox="0 0 512 512" style="enable-background:new 0 0 512 512;" xml:space="preserve">
	<style type="text/css">
		.st0 {
			fill: #FFFFFF;
		}
	</style>
	<rect x="0.27" y="0.27" width="511.47" height="511.47" />
	<g>
		<g>
			<path class="st0" d="M245.99,301.44c-0.86-4.31-1.5-8.73-1.63-13.12c-0.25-8.38-0.25-16.78,0-25.16c0.13-4.39,0.78-8.8,1.65-13.11
			c0.71-3.51,2.4-6.83,3.08-10.35c0.92-4.76-1.28-7.43-6.08-7.17c-4.17,0.23-8.46,0.8-12.39,2.13c-7.63,2.58-15.29,2.46-23.17,2.14
			c-12.61-0.5-25.27-0.86-37.87-0.36c-12.37,0.49-24.61,1.38-36.54-3.07c-2.32-0.86-5.05-0.9-7.58-0.86
			c-0.93,0.02-1.75,0.13-2.46,0.34c-2.68,0.78-3.82,2.89-3.23,6.33c0.6,3.52,2.18,6.88,2.89,10.39c0.14,0.68,0.27,1.36,0.41,2.04
			c0.7,3.58,1.41,9.5,1.5,13.14c0.21,7.67,0.19,15.35-0.08,23.01c-0.12,3.51-0.55,7.01-1.17,10.46c-0.24,1.36-0.5,2.72-0.76,4.07
			c-0.59,3.08-2.04,5.99-2.65,9.06c-0.8,4.05,0.18,6.45,3.08,7.26c0.92,0.26,2.04,0.36,3.35,0.29c3.72-0.18,7.55-0.74,11.06-1.92
			c8.04-2.7,16.15-2.68,24.5-2.34c13.21,0.55,26.47,0.78,39.68,0.25c11.18-0.44,22.21-1.14,32.96,2.9c2.35,0.88,5.01,0.94,6.4,1.18
			c6.96,0.13,9.31-2.5,8.03-8.13C248.24,307.68,246.63,304.66,245.99,301.44z" />
			<path class="st0" d="M385.58,301.44c-0.86-4.31-1.5-8.73-1.63-13.12c-0.25-8.38-0.25-16.78,0-25.16c0.13-4.39,0.78-8.8,1.65-13.11
			c0.71-3.51,2.4-6.83,3.08-10.35c0.92-4.76-1.28-7.43-6.08-7.17c-4.17,0.23-8.46,0.8-12.39,2.13c-7.63,2.58-15.29,2.46-23.17,2.14
			c-12.61-0.5-25.27-0.86-37.87-0.36c-12.37,0.49-24.61,1.38-36.54-3.07c-2.32-0.86-5.05-0.9-7.58-0.86
			c-0.93,0.02-1.75,0.13-2.46,0.34c-2.68,0.78-3.82,2.89-3.23,6.33c0.61,3.52,2.18,6.88,2.89,10.39c0.11,0.56,0.23,1.12,0.34,1.68
			c0.74,3.78,1.39,7.61,1.51,11.43c0.26,8.06,0.27,16.15,0.01,24.21c-0.13,3.98-0.6,7.93-1.3,11.85c-0.21,1.19-0.43,2.38-0.66,3.57
			c-0.59,3.08-2.04,5.99-2.65,9.06c-0.8,4.05,0.18,6.45,3.08,7.26c0.92,0.26,2.04,0.36,3.35,0.29c3.72-0.18,7.55-0.74,11.06-1.92
			c8.04-2.7,16.15-2.68,24.5-2.34c13.21,0.55,26.47,0.78,39.68,0.25c11.18-0.44,22.21-1.14,32.96,2.9c2.35,0.88,5.01,0.94,6.4,1.18
			c6.97,0.13,9.31-2.5,8.03-8.13C387.83,307.68,386.22,304.66,385.58,301.44z" />
		</g>
		<path class="st0" d="M255.27,65.57C122.62,65.03,12.96,172.8,11.32,305.44C10.69,355.7,25.33,402.5,50.89,441.5
		c1.21,1.85,3.3,2.96,5.52,2.96l3.71,0h0c4.11,0,7.44-3.33,7.44-7.44v-9.04c0-4.11,2.11-7.72,5.29-9.83
		c1.86-1.23,4.09-1.96,6.5-1.96h349.81c2.4,0,4.63,0.73,6.5,1.96c3.19,2.11,5.29,5.72,5.29,9.83v9.04c0,4.11,3.33,7.44,7.44,7.44
		l0,0h3.71c2.21,0,4.3-1.1,5.51-2.95c25.03-38.21,39.59-83.89,39.59-132.98C497.21,174.68,388.98,66.12,255.27,65.57z
		 M455.65,380.22v-29.09c0-6.51-5.28-11.79-11.79-11.79H64.65c-6.51,0-11.79,5.28-11.79,11.79v29.09v10.14
		c-11.83-29.1-17.61-61.3-15.59-95.09c6.62-110.48,96.92-199.21,207.49-203.92c124.38-5.29,226.87,93.98,226.87,217.18
		c0,28.96-5.71,56.56-15.98,81.83V380.22z" />
	</g>
</svg>