<svg id="Layer_1" data-name="Layer 1" xmlns="http://www.w3.org/2000/svg" viewBox="0 0 214.93 167.59"><defs><style>.cls-1{fill:#e1146e;}</style></defs><title>rnr_rooms_logo_icon</title><path class="cls-1" d="M286.1,443.63a35.5,35.5,0,0,1-.72-5.8q-.17-5.56,0-11.13a34.46,34.46,0,0,1,.73-5.8c.31-1.55,1.06-3,1.36-4.57.41-2.11-.56-3.29-2.69-3.17a20.71,20.71,0,0,0-5.48.94c-3.37,1.14-6.76,1.08-10.25.95-5.58-.23-11.17-.39-16.75-.16s-10.88.61-16.16-1.36a9.43,9.43,0,0,0-3.36-.38,4.41,4.41,0,0,0-1.09.15c-1.18.35-1.68,1.28-1.42,2.8s1,3,1.28,4.6l.18.9a42,42,0,0,1,.66,5.81c.09,3.39.08,6.79,0,10.18a34.35,34.35,0,0,1-.52,4.63c-.11.6-.22,1.2-.34,1.8-.26,1.36-.9,2.65-1.17,4-.35,1.79.08,2.85,1.36,3.21a4.52,4.52,0,0,0,1.49.13,18.38,18.38,0,0,0,4.89-.85c3.56-1.19,7.14-1.19,10.84-1,5.84.24,11.7.34,17.55.11,4.94-.2,9.82-.51,14.58,1.28a13,13,0,0,0,2.83.52c3.08.06,4.12-1.1,3.55-3.59C287.09,446.39,286.38,445.05,286.1,443.63Z" transform="translate(-182.29 -339.3)"/><path class="cls-1" d="M347.84,443.63a36.63,36.63,0,0,1-.72-5.8q-.17-5.56,0-11.13a34.44,34.44,0,0,1,.72-5.8c.32-1.55,1.07-3,1.37-4.57.4-2.11-.57-3.29-2.69-3.17a20.57,20.57,0,0,0-5.48.94c-3.38,1.14-6.77,1.08-10.25.95-5.58-.23-11.18-.39-16.75-.16s-10.89.61-16.17-1.36a9.35,9.35,0,0,0-3.35-.38,4.41,4.41,0,0,0-1.09.15c-1.19.35-1.69,1.28-1.43,2.8s1,3,1.28,4.6l.15.74a30.93,30.93,0,0,1,.67,5.05c.12,3.57.12,7.15,0,10.71a36.84,36.84,0,0,1-.58,5.24c-.09.53-.19,1.06-.29,1.58-.26,1.36-.9,2.65-1.17,4-.35,1.79.08,2.85,1.36,3.21a4.48,4.48,0,0,0,1.48.13,18.45,18.45,0,0,0,4.9-.85c3.55-1.19,7.14-1.19,10.83-1,5.84.24,11.71.34,17.55.11,4.95-.2,9.83-.51,14.58,1.28a13.14,13.14,0,0,0,2.83.52c3.08.06,4.12-1.1,3.55-3.59C348.84,446.39,348.13,445.05,347.84,443.63Z" transform="translate(-182.29 -339.3)"/><path class="cls-1" d="M290.2,339.3c-58.67-.24-107.17,47.43-107.9,106.1a107,107,0,0,0,17.5,60.18,2.92,2.92,0,0,0,2.44,1.31h1.64a3.29,3.29,0,0,0,3.3-3.29v-4a5.21,5.21,0,0,1,5.21-5.21H367.12a5.22,5.22,0,0,1,5.22,5.21v4a3.29,3.29,0,0,0,3.29,3.29h1.64a2.91,2.91,0,0,0,2.44-1.3A107.49,107.49,0,0,0,290.2,339.3Zm88.64,139.18V465.61a5.22,5.22,0,0,0-5.22-5.22H205.89a5.22,5.22,0,0,0-5.22,5.22V483a96,96,0,0,1-6.89-42.06c2.92-48.87,42.87-88.12,91.78-90.2A96.16,96.16,0,0,1,378.84,483Z" transform="translate(-182.29 -339.3)"/></svg>