<svg id="Layer_1" data-name="Layer 1" xmlns="http://www.w3.org/2000/svg" viewBox="0 0 318.07 79.15"><defs><style>.cls-1{fill:#fff;}</style></defs><title>rnr_rooms_logo_white</title><path class="cls-1" d="M304.59,518.48h-2.83l-3.67-4.22H295.8v4.22h-2.38V505.85l6,0c3,0,4.54,2,4.54,4.18a3.74,3.74,0,0,1-3.19,4l3.82,4.3Zm-8.79-10.4v4h3.62a2,2,0,1,0,0-4Z" transform="translate(-127.62 -439.65)"/><path class="cls-1" d="M327,512.24c0,3.26-2,6.52-6.47,6.52s-6.48-3.18-6.48-6.5,2.12-6.64,6.48-6.64A6.27,6.27,0,0,1,327,512.24Zm-10.61.06c0,2.07,1.17,4.29,4.14,4.29s4.09-2.24,4.13-4.31-1.16-4.5-4.13-4.5S316.29,510.17,316.35,512.3Z" transform="translate(-127.62 -439.65)"/><path class="cls-1" d="M350.1,512.24c0,3.26-2,6.52-6.47,6.52s-6.48-3.18-6.48-6.5,2.13-6.64,6.48-6.64A6.26,6.26,0,0,1,350.1,512.24Zm-10.61.06c.06,2.07,1.17,4.29,4.14,4.29s4.09-2.24,4.13-4.31-1.15-4.5-4.13-4.5S339.44,510.17,339.49,512.3Z" transform="translate(-127.62 -439.65)"/><path class="cls-1" d="M371.84,509.34l-4.11,5.48h-.47l-4-5.49v9.16h-2.38v-12.6h2.74l3.94,5.42,3.95-5.42h2.72v12.6h-2.38Z" transform="translate(-127.62 -439.65)"/><path class="cls-1" d="M393.23,508.91a3.61,3.61,0,0,0-3-1.4c-1.76,0-2.61.74-2.61,1.67,0,1.1,1.3,1.41,2.81,1.59,2.63.32,5.08,1,5.08,4,0,2.81-2.48,4-5.29,4-2.58,0-4.56-.79-5.5-3.1l2-1a3.61,3.61,0,0,0,3.55,2c1.5,0,2.9-.53,2.9-1.9,0-1.18-1.24-1.67-2.92-1.85-2.57-.31-4.95-1-4.95-3.82,0-2.59,2.56-3.66,4.88-3.67,2,0,4,.55,4.95,2.5Z" transform="translate(-127.62 -439.65)"/><path class="cls-1" d="M318.37,467.79c1.24-4.11,1-7.66-.59-10.26-1.43-2.29-4-3.79-7.37-4.33l-4.23-.45H282.9l-10.2,0h-8.92l-12.42,49.89h17.39l.06-.19h0c.18-.58.37-1.17.52-1.75q1.16-4.28,2.29-8.57c2.08-7.83,4.24-15.94,6.45-23.89.38-1.38,1.93-4,3.94-4.1,2.26-.12,4.68-.17,7.84-.17l3.91,0h5.82l-.2,1.91c-.35,3.43-.52,5.16-1.74,6.35s-3,1.25-6.16,1.25h-3.32c-1,0-1.71,0-2.42,0-.3,0-.61.05-.86.08-.23.87-.5,1.74-.76,2.58-.82,2.63-1.67,5.35-1.08,7.26,1.45,4.66,3.93,9.18,6.33,13.55.85,1.53,1.72,3.11,2.53,4.68a2.51,2.51,0,0,0,.9.86c4.13.08,8.16.09,11.56.09h7.46l-8-18.37,1.21-.8C314.17,477.42,316.16,475.08,318.37,467.79Z" transform="translate(-127.62 -439.65)"/><path class="cls-1" d="M444.3,457.53c-1.44-2.29-4-3.79-7.38-4.33l-4.23-.45H409.41l-10.2,0H390.3l-12.42,49.89h17.38l.06-.19h0c.19-.58.37-1.17.53-1.75l2.28-8.57c2.09-7.83,4.24-15.94,6.45-23.89.38-1.38,1.93-4,3.94-4.1,2.26-.12,4.68-.17,7.84-.17l3.91,0h5.82l-.19,1.91c-.35,3.43-.53,5.16-1.75,6.35s-3,1.25-6.16,1.25h-3.32c-.95,0-1.71,0-2.41,0-.31,0-.62.05-.87.08-.23.87-.5,1.74-.76,2.58-.82,2.63-1.67,5.35-1.07,7.26,1.44,4.66,3.92,9.18,6.33,13.55.84,1.53,1.71,3.11,2.53,4.68a2.41,2.41,0,0,0,.89.86c4.13.08,8.16.09,11.56.09h7.46l-8-18.37,1.21-.8c9.13-6.06,11.12-8.4,13.33-15.69C446.13,463.68,445.92,460.13,444.3,457.53Z" transform="translate(-127.62 -439.65)"/><polygon class="cls-1" points="239.8 13.09 233.12 32.51 240.72 57.39 255.97 13.09 239.8 13.09"/><polygon class="cls-1" points="188.08 63.01 204.33 63.01 211.4 42.48 203.63 17.84 188.08 63.01"/><path class="cls-1" d="M344.81,452.8l-12,.11,14.3,43.23a9.5,9.5,0,0,0,9,6.52H367L354,459.55A9.52,9.52,0,0,0,344.81,452.8Z" transform="translate(-127.62 -439.65)"/><path class="cls-1" d="M176.63,488.91a16.82,16.82,0,0,1-.34-2.74q-.07-2.62,0-5.25a16.82,16.82,0,0,1,.34-2.74c.15-.73.51-1.43.65-2.16.19-1-.27-1.55-1.27-1.5a9.84,9.84,0,0,0-2.59.45,13,13,0,0,1-4.84.44c-2.63-.1-5.27-.18-7.91-.07s-5.14.29-7.63-.64a4.37,4.37,0,0,0-1.58-.18,2,2,0,0,0-.52.07c-.56.16-.79.61-.67,1.32s.45,1.44.6,2.17l.09.43a19.48,19.48,0,0,1,.31,2.74c0,1.6,0,3.21,0,4.81a16,16,0,0,1-.25,2.18c0,.29-.1.57-.16.85-.12.65-.42,1.26-.55,1.9-.16.84,0,1.34.64,1.51a2.16,2.16,0,0,0,.7.07,8.55,8.55,0,0,0,2.31-.41,13.83,13.83,0,0,1,5.12-.48c2.76.11,5.53.16,8.29.05,2.33-.09,4.63-.24,6.88.6a6.06,6.06,0,0,0,1.34.25c1.45,0,1.94-.52,1.67-1.7C177.1,490.21,176.76,489.58,176.63,488.91Z" transform="translate(-127.62 -439.65)"/><path class="cls-1" d="M205.78,488.91a16.82,16.82,0,0,1-.34-2.74q-.08-2.62,0-5.25a16.84,16.84,0,0,1,.35-2.74c.15-.73.5-1.43.64-2.16.19-1-.26-1.55-1.27-1.5a9.84,9.84,0,0,0-2.59.45,12.93,12.93,0,0,1-4.83.44c-2.64-.1-5.28-.18-7.91-.07s-5.14.29-7.64-.64a4.37,4.37,0,0,0-1.58-.18,2,2,0,0,0-.51.07c-.56.16-.8.61-.68,1.32s.46,1.44.61,2.17c0,.12,0,.24.07.35a14.89,14.89,0,0,1,.31,2.39c.06,1.68.06,3.37,0,5.06a18.66,18.66,0,0,1-.27,2.47c-.05.25-.1.5-.14.74-.13.65-.43,1.26-.56,1.9-.16.84,0,1.34.65,1.51a2.1,2.1,0,0,0,.7.07,8.69,8.69,0,0,0,2.31-.41,13.78,13.78,0,0,1,5.11-.48c2.76.11,5.53.16,8.29.05,2.33-.09,4.64-.24,6.88.6a6.06,6.06,0,0,0,1.34.25c1.45,0,1.94-.52,1.68-1.7C206.25,490.21,205.92,489.58,205.78,488.91Z" transform="translate(-127.62 -439.65)"/><path class="cls-1" d="M178.57,439.65a50.74,50.74,0,0,0-42.68,78.51,1.37,1.37,0,0,0,1.15.62h.77a1.56,1.56,0,0,0,1.56-1.56v-1.88a2.48,2.48,0,0,1,1.1-2.06,2.53,2.53,0,0,1,1.36-.41h73a2.5,2.5,0,0,1,1.36.41,2.46,2.46,0,0,1,1.11,2.06v1.88a1.55,1.55,0,0,0,1.55,1.56h.78a1.38,1.38,0,0,0,1.15-.62,50.74,50.74,0,0,0-42.26-78.51Zm41.85,65.71v-6.07a2.46,2.46,0,0,0-2.46-2.46h-79.2a2.46,2.46,0,0,0-2.46,2.46v8.19a45.4,45.4,0,1,1,84.12,0Z" transform="translate(-127.62 -439.65)"/></svg>